<svg id="Layer_3" enable-background="new 0 0 64 64" height="512" viewBox="0 0 64 64" width="512" xmlns="http://www.w3.org/2000/svg"><g><path d="m2 2h40v54h-40z" fill="#c7e2fb"/><path d="m2 49.987c20.479-.287 37-18.075 37-39.987 0-2.74-.26-5.415-.752-8h-36.248z" fill="#ebf7fe"/><g fill="#4472b0"><path d="m6 6h6v6h-6z"/><path d="m6 16h6v6h-6z"/><path d="m6 26h6v6h-6z"/><path d="m6 36h6v6h-6z"/><path d="m6 46h6v6h-6z"/></g><path d="m24 44h26v18h-26z" fill="#ac876c"/><path d="m24 44 13 9 13-9z" fill="#976947"/><path d="m46 39h9v3l5-5-5-5v3h-9z" fill="#a0a8b3"/><path d="m50 25h7v3l5-5-5-5v3h-7z" fill="#a0a8b3"/><g><path d="m6 12.905h6c.553 0 1-.447 1-1v-6c0-.553-.447-1-1-1h-6c-.553 0-1 .447-1 1v6c0 .553.447 1 1 1zm1-6h4v4h-4z"/><path d="m6 32.905h6c.553 0 1-.447 1-1v-6c0-.553-.447-1-1-1h-6c-.553 0-1 .447-1 1v6c0 .553.447 1 1 1zm1-6h4v4h-4z"/><path d="m12 44.905h-6c-.553 0-1 .447-1 1v6c0 .553.447 1 1 1h6c.553 0 1-.447 1-1v-6c0-.552-.447-1-1-1zm-1 6h-4v-4h4z"/><path d="m15 7.905h24v2h-24z"/><path d="m15 17.905h24v2h-24z"/><path d="m15 27.905h24v2h-24z"/><path d="m15 37.905h24v2h-24z"/><path d="m11.586 14.905h-5.586c-.553 0-1 .447-1 1v6c0 .553.447 1 1 1h6c.553 0 1-.447 1-1v-5.586l1.707-1.707-1.414-1.414zm-2 2-2.586 2.586v-2.586zm1.414 4h-2.586l2.586-2.586z"/><path d="m13.293 33.198-1.707 1.707h-5.586c-.553 0-1 .447-1 1v6c0 .553.447 1 1 1h6c.553 0 1-.447 1-1v-5.586l1.707-1.707zm-3.707 3.707-2.586 2.586v-2.586zm1.414 4h-2.586l2.586-2.586z"/><path d="m50 42.905h-7v-41c0-.553-.447-1-1-1h-40c-.553 0-1 .447-1 1v54c0 .553.447 1 1 1h21v5c0 .553.447 1 1 1h26c.553 0 1-.447 1-1v-18c0-.552-.447-1-1-1zm-3.201 2-9.799 6.784-9.799-6.784zm-43.799 10v-52h38v40h-17c-.553 0-1 .447-1 1v4h-8v2h8v5zm22 6v-15.091l11.431 7.914c.171.118.37.178.569.178s.398-.06.569-.178l11.431-7.914v15.091z"/><path d="m53 56.905h8v2h-8z"/><path d="m55 60.905h8v2h-8z"/><path d="m46 39.905h8v2c0 .404.243.77.617.924.124.052.254.076.383.076.26 0 .516-.102.707-.293l5-5c.391-.391.391-1.023 0-1.414l-5-5c-.286-.286-.715-.372-1.09-.217-.374.155-.617.52-.617.924v2h-8c-.553 0-1 .447-1 1v4c0 .553.447 1 1 1zm1-4h8c.553 0 1-.447 1-1v-.586l2.586 2.586-2.586 2.586v-.586c0-.553-.447-1-1-1h-8z"/><path d="m50 25.905h6v2c0 .404.243.77.617.924.124.052.254.076.383.076.26 0 .516-.102.707-.293l5-5c.391-.391.391-1.023 0-1.414l-5-5c-.286-.286-.715-.371-1.09-.217-.374.155-.617.52-.617.924v2h-6c-.553 0-1 .447-1 1v4c0 .553.447 1 1 1zm1-4h6c.553 0 1-.447 1-1v-.586l2.586 2.586-2.586 2.586v-.586c0-.553-.447-1-1-1h-6z"/></g></g></svg>